Coordinates
version=1
nRows=17
nColumns=38
inDegrees=no

Units are S.I. units (second, meters, Newtons, ...)
If the header above contains a line with 'inDegrees', this indicates whether rotational values are in degrees (yes) or radians (no).

endheader
time	pelvis_tilt	pelvis_list	pelvis_rotation	pelvis_tx	pelvis_ty	pelvis_tz	hip_flexion_r	hip_adduction_r	hip_rotation_r	knee_angle_r	ankle_angle_r	subtalar_angle_r	mtp_angle_r	hip_flexion_l	hip_adduction_l	hip_rotation_l	knee_angle_l	ankle_angle_l	subtalar_angle_l	mtp_angle_l	lumbar_extension	lumbar_bending	lumbar_rotation	arm_flex_r	arm_add_r	arm_rot_r	elbow_flex_r	pro_sup_r	wrist_flex_r	wrist_dev_r	arm_flex_l	arm_add_l	arm_rot_l	elbow_flex_l	pro_sup_l	wrist_flex_l	wrist_dev_l
0	0.184856	1.46932	-1.84186	0.697672	1.33601	0.944436	-0.272807	-0.00822009	-0.187884	0.238001	0.268863	0	0	0.390463	-0.0661784	-0.321343	0.244183	0.115552	0	0	-0.184495	-0.00610003	0.0601595	0.079192	-0.188292	0.247294	0.570175	1.05778	0	0	-0.229012	-0.173305	0.407992	0.518927	0.697474	0	0
0.01	0.222939	1.47255	-1.88106	0.698695	1.32503	0.942481	-0.275799	-0.0151906	-0.191042	0.249108	0.277304	0	0	0.384289	-0.0537122	-0.299294	0.198324	0.109504	0	0	-0.179397	-0.00882271	0.0624642	0.0805187	-0.187557	0.248408	0.56971	1.05237	0	0	-0.227433	-0.173305	0.435287	0.508455	0.659271	0	0
0.02	0.258294	1.47322	-1.91819	0.699551	1.31337	0.940757	-0.283502	-0.0224057	-0.193633	0.25754	0.283617	0	0	0.375986	-0.0432178	-0.279586	0.16082	0.105479	0	0	-0.177067	-0.0125798	0.0654674	0.0799922	-0.186397	0.248294	0.571271	1.04601	0	0	-0.227415	-0.173625	0.459579	0.500865	0.633263	0	0
0.03	0.288106	1.47282	-1.95087	0.700333	1.3014	0.939174	-0.292098	-0.0299786	-0.195487	0.266904	0.288602	0	0	0.368689	-0.035347	-0.263928	0.13431	0.104106	0	0	-0.175867	-0.0165212	0.0696464	0.0788588	-0.185351	0.248646	0.572571	1.04009	0	0	-0.228435	-0.174127	0.480987	0.495664	0.615482	0	0
0.04	0.312044	1.47209	-1.97937	0.701056	1.28922	0.9377	-0.30003	-0.0380736	-0.195663	0.278281	0.292406	0	0	0.363978	-0.0303493	-0.254234	0.120627	0.106245	0	0	-0.174915	-0.0201669	0.0753405	0.07745	-0.184665	0.250056	0.573374	1.03516	0	0	-0.230119	-0.173949	0.498058	0.49059	0.600169	0	0
0.05	0.331146	1.47184	-2.00418	0.701775	1.27682	0.936294	-0.306491	-0.0462431	-0.193869	0.291506	0.294601	0	0	0.363306	-0.0281554	-0.250809	0.12087	0.111901	0	0	-0.173299	-0.0231865	0.0818677	0.0756696	-0.184352	0.252124	0.573087	1.03438	0	0	-0.232855	-0.171986	0.505097	0.48481	0.595024	0	0
0.06	0.353677	1.47121	-2.03288	0.702449	1.26425	0.935006	-0.311655	-0.0554837	-0.191444	0.307469	0.295943	0	0	0.364576	-0.0268576	-0.250837	0.131204	0.117886	0	0	-0.171579	-0.0270622	0.0889567	0.0732002	-0.183994	0.254935	0.57261	1.03433	0	0	-0.235668	-0.171068	0.514218	0.480525	0.589442	0	0
0.07	0.379123	1.47111	-2.06455	0.703097	1.25148	0.933764	-0.314735	-0.0650428	-0.188346	0.325909	0.295834	0	0	0.368738	-0.0266213	-0.253331	0.151384	0.122977	0	0	-0.168492	-0.031226	0.0959238	0.0701072	-0.18326	0.257106	0.571631	1.03407	0	0	-0.239456	-0.171358	0.524677	0.478908	0.584598	0	0
0.08	0.413063	1.47195	-2.10464	0.703775	1.23846	0.932545	-0.315031	-0.0753577	-0.184866	0.347123	0.29426	0	0	0.375732	-0.0268392	-0.257238	0.179937	0.125019	0	0	-0.1632	-0.0357748	0.102862	0.0658412	-0.182438	0.259658	0.569776	1.03384	0	0	-0.244314	-0.172635	0.535894	0.479522	0.580916	0	0
0.09	0.611726	1.48068	-2.31736	0.70371	1.22583	0.929052	-0.255423	-0.129482	-0.268629	0.460659	0.326598	0	0	0.402736	-0.0241287	-0.269558	0.218718	0.125467	0	0	-0.139122	-0.0502248	0.116657	0.0589609	-0.179904	0.262294	0.56898	1.03393	0	0	-0.253841	-0.178025	0.545434	0.487	0.578003	0	0
0.1	0.504396	1.4811	-2.20851	0.705313	1.21138	0.929643	-0.303056	-0.0938646	-0.172028	0.397791	0.285046	0	0	0.400823	-0.0323742	-0.271192	0.257043	0.129907	0	0	-0.140201	-0.0411797	0.118182	0.0508551	-0.181874	0.261181	0.567134	1.03543	0	0	-0.258425	-0.178619	0.567063	0.488634	0.566856	0	0
0.11	0.744026	1.48743	-2.46145	0.705515	1.19796	0.926191	-0.24301	-0.149794	-0.252302	0.509329	0.306312	0	0	0.423502	-0.0265803	-0.279377	0.290542	0.130783	0	0	-0.1132	-0.0557849	0.131415	0.0400311	-0.179421	0.259393	0.568041	1.03582	0	0	-0.271015	-0.184141	0.569029	0.499325	0.567456	0	0
0.12	0.951831	1.4914	-2.67336	0.707282	1.1835	0.924099	-0.218783	-0.157762	-0.218309	0.545741	0.291602	0	0	0.442137	-0.0198851	-0.282417	0.319334	0.125572	0	0	-0.0867733	-0.0621727	0.13728	0.0259146	-0.178771	0.254214	0.566739	1.04342	0	0	-0.284272	-0.188114	0.576951	0.51062	0.568573	0	0
0.13	1.00502	1.49171	-2.72926	0.708172	1.16923	0.923256	-0.212681	-0.177623	-0.240899	0.577025	0.275012	0	0	0.444489	-0.0183329	-0.284246	0.338511	0.107049	0	0	-0.0763385	-0.0656278	0.140888	0.0152211	-0.177131	0.250833	0.565555	1.04737	0	0	-0.294468	-0.192117	0.576652	0.520856	0.573088	0	0
0.14	1.10315	1.48943	-2.82618	0.709896	1.15513	0.922605	-0.198442	-0.191343	-0.235405	0.614541	0.248735	0	0	0.451511	-0.0119318	-0.285473	0.358917	0.0796503	0	0	-0.0639633	-0.0722671	0.140591	0.0044573	-0.174136	0.240226	0.562596	1.05996	0	0	-0.304876	-0.196954	0.575233	0.533899	0.582575	0	0
0.15	0.90599	1.48923	-2.62007	0.712394	1.14119	0.92551	-0.23415	-0.153369	-0.146721	0.589027	0.197151	0	0	0.435153	-0.0144719	-0.277925	0.380808	0.0614784	0	0	-0.0795518	-0.0650615	0.133959	-0.00205412	-0.173418	0.222649	0.557885	1.07887	0	0	-0.303489	-0.193964	0.572744	0.531674	0.597925	0	0
0.16	1.19612	1.47911	-2.90585	0.714205	1.12815	0.923417	-0.169312	-0.216945	-0.225704	0.70069	0.173729	0	0	0.463356	0.00391165	-0.278647	0.417512	0.0571902	0	0	-0.0551205	-0.0887796	0.129861	-0.0130314	-0.165935	0.212682	0.555234	1.08542	0	0	-0.314468	-0.205863	0.571829	0.551407	0.604561	0	0
